Coordinates
version=1
nRows=9
nColumns=26
inDegrees=yes

Units are S.I. units (second, meters, Newtons, ...)
If the header above contains a line with 'inDegrees', this indicates whether rotational values are in degrees (yes) or radians (no).

endheader
time	pelvis_tilt	pelvis_list	pelvis_rotation	pelvis_tx	pelvis_ty	pelvis_tz	hip_flexion_r	hip_adduction_r	hip_rotation_r	knee_angle_r	knee_angle_r_beta	ankle_angle_r	subtalar_angle_r	mtp_angle_r	hip_flexion_l	hip_adduction_l	hip_rotation_l	knee_angle_l	knee_angle_l_beta	ankle_angle_l	subtalar_angle_l	mtp_angle_l	lumbar_extension	lumbar_bending	lumbar_rotation
      1.25500000	    -16.49537089	      4.95503048	     -0.68938600	     -0.12065551	      0.94028037	     -0.54422558	     43.15399231	    -16.39551980	     -6.56995996	     55.64536979	      0.97119492	     16.51235960	      0.00000000	      0.00000000	     39.19495162	     -4.64634493	     -5.74532114	     52.93852702	      0.92395160	     21.75850270	      0.00000000	      0.00000000	      6.61063911	     -5.50223273	     -2.52385876
      1.26000000	    -16.56435021	      4.94907128	     -0.57434500	     -0.12247454	      0.93251310	     -0.54431379	     44.07551290	    -16.47728810	     -6.40463063	     57.03149157	      0.99538731	     17.89501701	      0.00000000	      0.00000000	     40.23871774	     -4.76479179	     -5.78474349	     54.50549954	      0.95130043	     22.67072373	      0.00000000	      0.00000000	      6.36238729	     -5.53866754	     -2.70661977
      1.26500000	    -16.63916387	      4.95596975	     -0.47171876	     -0.12431040	      0.92483884	     -0.54439954	     45.00413387	    -16.56399928	     -6.25142454	     58.39414239	      1.01917005	     19.20512971	      0.00000000	      0.00000000	     41.29310319	     -4.87975548	     -5.86608570	     56.07733695	      0.97873417	     23.52786714	      0.00000000	      0.00000000	      6.12769184	     -5.58648325	     -2.86816912
      1.27000000	    -16.73553475	      4.97321856	     -0.37626490	     -0.12617665	      0.91728861	     -0.54448177	     45.94916791	    -16.65053895	     -6.11128657	     59.71875112	      1.04228883	     20.45299699	      0.00000000	      0.00000000	     42.37505376	     -4.99425291	     -5.98267167	     57.64836034	      1.00615370	     24.33650991	      0.00000000	      0.00000000	      5.92293056	     -5.64425607	     -3.01385607
      1.27500000	    -16.86127198	      4.99698152	     -0.28376835	     -0.12807346	      0.90990591	     -0.54456245	     46.91155833	    -16.73242546	     -5.98534160	     60.99468067	      1.06455800	     21.64938218	      0.00000000	      0.00000000	     43.48485506	     -5.11115744	     -6.12737174	     59.20071360	      1.03324737	     25.10133299	      0.00000000	      0.00000000	      5.75576086	     -5.70780281	     -3.14791544
      1.28000000	    -17.02300286	      5.02104320	     -0.18576556	     -0.12998360	      0.90274217	     -0.54465037	     47.88441177	    -16.80676140	     -5.88159348	     62.20872040	      1.08574699	     22.79527741	      0.00000000	      0.00000000	     44.61708287	     -5.22854209	     -6.28592258	     60.70696614	      1.05953644	     25.81524559	      0.00000000	      0.00000000	      5.63517395	     -5.77208558	     -3.27931904
      1.28500000	    -17.22312047	      5.04832039	     -0.07906743	     -0.13189586	      0.89584623	     -0.54474449	     48.86217816	    -16.87356918	     -5.79217138	     63.35249093	      1.10570956	     23.88939113	      0.00000000	      0.00000000	     45.75732131	     -5.33518897	     -6.44974891	     62.13768955	      1.08450727	     26.47823167	      0.00000000	      0.00000000	      5.56438820	     -5.84184288	     -3.41103507
      1.29000000	    -17.46111052	      5.07941699	      0.03305330	     -0.13379282	      0.88926328	     -0.54484576	     49.83881819	    -16.92829396	     -5.70361123	     64.42179544	      1.12437244	     24.92055515	      0.00000000	      0.00000000	     46.88889705	     -5.42573489	     -6.61112611	     63.46651374	      1.10769963	     27.08678562	      0.00000000	      0.00000000	      5.54068175	     -5.91450052	     -3.55445505
      1.29500000	    -17.72873732	      5.11375177	      0.14673999	     -0.13565079	      0.88303615	     -0.54495427	     50.80296535	    -16.96719197	     -5.60109882	     65.41795421	      1.14175869	     25.86928651	      0.00000000	      0.00000000	     47.98809999	     -5.49749175	     -6.76353011	     64.67477330	      1.12878774	     27.64450564	      0.00000000	      0.00000000	      5.55721457	     -5.98879471	     -3.70374651
